<?xml version="1.0" encoding="UTF-8"?>
<svg id="b" data-name="Layer 2" xmlns="http://www.w3.org/2000/svg" xmlns:xlink="http://www.w3.org/1999/xlink" viewBox="0 0 512 512">
  <defs>
    <linearGradient id="d" data-name="New Gradient Swatch 1" x1="0" y1="256" x2="512" y2="256" gradientUnits="userSpaceOnUse">
      <stop offset="0" stop-color="#10b981"/>
      <stop offset="1" stop-color="#0ea5e9"/>
    </linearGradient>
  </defs>
  <g id="c" data-name="Layer 1">
    <rect width="512" height="512" rx="64" ry="64" fill="url(#d)" stroke-width="0"/>
    <path d="m131.49,288.29c30.22,0,55.06-48.62,86.79-78.47-19.59,0-50.98,53.1-89.3,53.1s-77.44-52.33-92.98-52.33c15.47,13.79,52.88,77.7,95.49,77.7Zm202.63,11.54c-32.96,0-22.44-92.3-74.12-92.3s-75.94,103.4-121.04,103.4c-53.38,0-90.25-74.07-102.95-74.16,8.69,7.54,44.03,98.89,105.34,98.89s81.21-96.17,117.56-96.17c28.68,0,21.69,96,73.8,96s90.89-138.65,143.3-159.15c-75.76,0-104.55,123.49-141.89,123.49Z" fill="#fff" stroke-width="0"/>
  </g>
</svg>